<?xml version="1.0" standalone="no"?>
<!DOCTYPE svg PUBLIC "-//W3C//DTD SVG 20010904//EN"
 "http://www.w3.org/TR/2001/REC-SVG-20010904/DTD/svg10.dtd">
<svg version="1.0" xmlns="http://www.w3.org/2000/svg"
 width="726.000000pt" height="726.000000pt" viewBox="0 0 726.000000 726.000000"
 preserveAspectRatio="xMidYMid meet">
<metadata>
Created by potrace 1.11, written by Peter Selinger 2001-2013
</metadata>
<g transform="translate(0.000000,726.000000) scale(0.100000,-0.100000)"
fill="#000000" stroke="none">
<path d="M375 3859 l0 -2250 125 3 125 3 1 1930 c1 1062 2 1936 3 1944 0 7
101 -87 224 -210 l222 -224 0 -1722 0 -1723 125 0 125 0 0 1595 c0 877 1 1595
3 1595 2 0 217 -214 479 -475 l475 -475 43 43 c23 23 64 63 89 88 l47 46 -568
568 -568 568 0 169 c0 92 1 168 3 168 2 0 316 -312 697 -693 l693 -693 -19
-55 c-57 -163 17 -362 169 -452 75 -45 134 -60 218 -54 98 6 139 19 210 68
134 92 195 277 144 440 -35 114 -140 219 -252 253 -67 20 -184 19 -243 -2
l-50 -18 -896 895 c-493 493 -902 901 -910 908 -12 10 -14 -34 -14 -320 1
-183 -1 -338 -3 -345 -2 -6 -154 138 -337 320 -182 183 -338 338 -346 345 -12
10 -14 -295 -14 -2238z m2737 210 c72 -18 114 -111 84 -184 -40 -95 -185 -108
-241 -21 -46 70 -13 175 64 204 32 12 49 12 93 1z"/>
<path d="M4750 5069 l-1041 -1042 43 -42 c24 -23 64 -63 89 -89 l47 -47 825
826 c454 454 827 825 829 825 2 0 3 -75 3 -167 l0 -168 -567 -568 -568 -568
87 -89 c84 -85 89 -88 107 -72 10 9 225 223 476 475 252 251 460 457 462 457
1 0 3 -718 3 -1595 l0 -1595 125 0 125 0 0 1723 0 1722 221 223 c123 123 224
217 226 210 2 -7 4 -798 4 -1757 l-1 -1744 -48 -26 c-72 -39 -115 -78 -152
-135 -129 -202 -55 -468 160 -571 49 -23 76 -29 147 -32 89 -3 123 4 196 39
233 114 284 438 98 623 -28 28 -73 62 -101 76 l-50 25 0 2062 0 2061 -24 -22
c-13 -12 -169 -167 -346 -345 -178 -177 -325 -316 -327 -310 -2 7 -4 163 -3
346 0 182 -1 332 -2 332 -1 0 -470 -469 -1043 -1041z m1684 -3339 c47 -24 71
-65 70 -120 -1 -79 -50 -132 -126 -136 -72 -3 -119 33 -139 107 -11 41 -10 50
8 85 38 74 114 100 187 64z"/>
</g>
</svg>
